<?xml version="1.0" encoding="UTF-8"?>
<!DOCTYPE svg PUBLIC "-//W3C//DTD SVG 1.1//EN" "http://www.w3.org/Graphics/SVG/1.1/DTD/svg11.dtd">
<svg xmlns="http://www.w3.org/2000/svg" version="1.1" width="500px" height="545px" style="shape-rendering:geometricPrecision; text-rendering:geometricPrecision; image-rendering:optimizeQuality; fill-rule:evenodd; clip-rule:evenodd" xmlns:xlink="http://www.w3.org/1999/xlink">
<g><path style="opacity:1" fill="#4ab5e7" d="M 267.5,-0.5 C 268.167,-0.5 268.833,-0.5 269.5,-0.5C 298.247,31.4045 305.414,67.7379 291,108.5C 285.982,120.835 278.649,131.502 269,140.5C 244.874,117.374 221.04,93.8741 197.5,70C 221.035,46.632 244.368,23.132 267.5,-0.5 Z"/></g>
<g><path style="opacity:1" fill="#c8e7f9" d="M 368.5,99.5 C 388.596,118.714 398.596,142.38 398.5,170.5C 398.496,198.369 388.662,222.036 369,241.5C 345.319,217.986 321.819,194.32 298.5,170.5C 321.854,146.812 345.188,123.146 368.5,99.5 Z"/></g>
<g><path style="opacity:1" fill="#068fce" d="M -0.5,270.5 C -0.5,269.5 -0.5,268.5 -0.5,267.5C 54.4929,212.674 109.66,158.007 165,103.5C 227.388,170.05 247.055,247.717 224,336.5C 212.459,374.28 192.793,406.947 165,434.5C 109.672,380.005 54.5052,325.339 -0.5,270.5 Z"/></g>
<g><path style="opacity:1" fill="#89cef3" d="M 499.5,256.5 C 499.5,265.167 499.5,273.833 499.5,282.5C 495.794,304.91 485.961,324.244 470,340.5C 446.126,316.96 422.626,293.126 399.5,269C 422.948,245.386 446.614,221.886 470.5,198.5C 486.563,214.626 496.23,233.96 499.5,256.5 Z"/></g>
<g><path style="opacity:1" fill="#c8e7f9" d="M 365.5,303.5 C 385.694,322.879 395.694,346.712 395.5,375C 395.298,402.55 385.631,426.05 366.5,445.5C 342.003,422.836 318.336,399.336 295.5,375C 318.661,351.006 341.994,327.172 365.5,303.5 Z"/></g>
<g><path style="opacity:1" fill="#4ab5e7" d="M 266.5,544.5 C 265.833,544.5 265.167,544.5 264.5,544.5C 241.188,520.854 217.854,497.188 194.5,473.5C 217.848,449.319 241.681,425.652 266,402.5C 294.354,433.597 302.021,469.264 289,509.5C 283.673,522.641 276.173,534.308 266.5,544.5 Z"/></g>
</svg>
